<?xml version="1.0" encoding="utf-8"?>
<!-- Generator: Adobe Illustrator 24.0.1, SVG Export Plug-In . SVG Version: 6.00 Build 0)  -->
<svg version="1.1" id="Layer_1" xmlns="http://www.w3.org/2000/svg" xmlns:xlink="http://www.w3.org/1999/xlink" x="0px" y="0px"
	 viewBox="0 0 500 250" style="enable-background:new 0 0 500 250;" xml:space="preserve">
<style type="text/css">
	.st0{fill-rule:evenodd;clip-rule:evenodd;fill:#FFFFFF;}
</style>
<g>
	<g>
		<path class="st0" d="M51.69,125.54c-7.79-2.69-14.65-4.57-14.65-8.6v-0.27c0-2.82,2.55-4.97,7.53-4.97
			c5.24,0,12.36,2.55,19.49,6.72l7.79-14.11c-7.79-5.24-17.74-8.33-26.88-8.33c-14.51,0-26.34,8.2-26.34,22.85v0.27
			c0,13.98,11.42,18.68,21.5,21.64c7.93,2.42,14.92,3.9,14.92,8.33v0.27c0,3.23-2.69,5.38-8.6,5.38c-6.72,0-14.92-2.96-22.71-8.6
			L15,159.55c9.54,7.53,20.83,10.89,30.91,10.89c15.59,0,27.55-7.26,27.55-23.25v-0.27C73.46,133.74,61.76,128.9,51.69,125.54z
			 M116.19,95.7c-10.35,0-16.39,5.51-21.1,11.56V70.97H74.66v98.12h20.43V128.9c0-9.68,4.97-14.65,12.77-14.65
			c7.79,0,12.36,4.97,12.36,14.65v40.19h20.43v-46.64C140.64,105.92,131.64,95.7,116.19,95.7z M145.34,89.11h21.5V70.97h-21.5V89.11
			z M145.88,169.09h20.43V97.04h-20.43V169.09z M283.88,146.11l-16.39-49.06H253.4v-0.01h-19.64V78.95h-20.43v18.09h-17.6v-2
			c0-5.38,2.69-7.8,7.39-7.8c3.49,0,6.32,0.67,9.27,1.75V72.04c-3.76-1.21-8.06-2.02-14.51-2.02c-7.26,0-12.77,1.88-16.53,5.65
			c-3.76,3.76-5.78,9.54-5.78,17.47v3.89h-8.05v18.02h8.05v54.04H196v-54.04h17.33v33.93c0,16.67,8.47,21.64,20.96,21.64
			c6.85,0,11.83-1.61,16.13-4.17v-16.4c-2.96,1.61-6.32,2.55-10.08,2.55c-4.57,0-6.58-2.29-6.58-6.99v-30.57h19.12l21.19,54.31
			c-1.75,3.63-3.63,4.7-7.12,4.7c-2.69,0-6.05-1.21-8.73-2.82l-6.85,14.79c5.24,3.09,10.75,4.97,18.14,4.97
			c12.23,0,18.14-5.51,23.65-20.16l27.68-73.79H299.6L283.88,146.11z M339.9,139.65l31.51,26.88v-9.01l-26.41-22.58l26.41-22.58
			v-9.01l-31.51,26.88V139.65z M410.38,112.37l26.41,22.58l-26.41,22.58v9.01l31.51-26.88v-9.41l-31.51-26.88V112.37z M485.5,103.36
			l-31.51,26.88v9.41l31.51,26.88v-9.01l-26.41-22.58l26.41-22.58V103.36z"/>
	</g>
</g>
</svg>
